<svg width="513" height="513" viewBox="0 0 513 513" fill="none" xmlns="http://www.w3.org/2000/svg">
<path d="M512.25 256.25C512.25 324.145 485.279 389.26 437.269 437.269C389.26 485.279 324.145 512.25 256.25 512.25C188.355 512.25 123.24 485.279 75.2307 437.269C27.2213 389.26 0.25 324.145 0.25 256.25C0.25 188.355 27.2213 123.24 75.2307 75.2307C123.24 27.2213 188.355 0.25 256.25 0.25C324.145 0.25 389.26 27.2213 437.269 75.2307C485.279 123.24 512.25 188.355 512.25 256.25Z" fill="#875A7B"/>
<path opacity="0.2" d="M401.256 247.107C396.491 209.79 377.532 175.743 348.319 152.04C342.376 154.252 336.067 155.679 329.393 155.679C306.389 155.679 286.604 141.16 278.504 120.894C271.142 119.732 263.703 119.135 256.25 119.107C236.755 119.109 217.458 123.007 199.491 130.572L227.313 178.786C236.633 175.631 246.401 174.001 256.241 173.959C277.301 173.978 297.708 181.266 314.015 194.593C330.322 207.92 341.528 226.467 345.74 247.102H401.241L401.256 247.107ZM401.219 283.679H345.826C341.612 304.325 330.395 322.882 314.073 336.21C297.752 349.538 277.328 356.819 256.255 356.821C246.418 356.793 236.65 355.177 227.327 352.036L199.577 400.107C217.508 407.698 236.773 411.633 256.245 411.682C263.725 411.614 271.189 410.972 278.571 409.762C286.69 389.574 306.439 375.11 329.387 375.11C336.082 375.11 342.433 376.513 348.388 378.753C377.561 355.031 396.478 320.987 401.215 283.686L401.219 283.679ZM365.964 100.821C365.964 91.1221 362.111 81.82 355.253 74.9615C348.394 68.103 339.092 64.25 329.393 64.25C319.694 64.25 310.391 68.103 303.533 74.9615C296.674 81.82 292.821 91.1221 292.821 100.821C292.821 110.521 296.674 119.823 303.533 126.681C310.391 133.54 319.694 137.393 329.393 137.393C339.092 137.393 348.394 133.54 355.253 126.681C362.111 119.823 365.964 110.521 365.964 100.821ZM365.964 429.964C365.964 420.265 362.111 410.963 355.253 404.104C348.394 397.246 339.092 393.393 329.393 393.393C319.694 393.393 310.391 397.246 303.533 404.104C296.674 410.963 292.821 420.265 292.821 429.964C292.821 439.664 296.674 448.966 303.533 455.824C310.391 462.683 319.694 466.536 329.393 466.536C339.092 466.536 348.394 462.683 355.253 455.824C362.111 448.966 365.964 439.664 365.964 429.964ZM195.688 197.077L167.93 149.004C141.511 169.068 122.696 197.516 114.572 229.681C122.965 239.329 128.251 251.739 128.251 265.395C128.251 279.034 122.981 291.43 114.608 301.074C122.69 333.268 141.481 361.757 167.895 381.86L195.689 333.75C186.004 325.187 178.245 314.667 172.925 302.885C167.604 291.103 164.843 278.326 164.823 265.398C164.848 252.477 167.612 239.707 172.932 227.932C178.253 216.156 186.009 205.642 195.689 197.083L195.688 197.077ZM109.964 265.393C109.964 255.693 106.111 246.391 99.2528 239.533C92.3943 232.674 83.0922 228.821 73.3929 228.821C63.6935 228.821 54.3914 232.674 47.5329 239.533C40.6745 246.391 36.8214 255.693 36.8214 265.393C36.8214 275.092 40.6745 284.394 47.5329 291.253C54.3914 298.111 63.6935 301.964 73.3929 301.964C83.0922 301.964 92.3943 298.111 99.2528 291.253C106.111 284.394 109.964 275.092 109.964 265.393Z" fill="black"/>
<path d="M401.256 237.964C396.492 200.646 377.533 166.597 348.319 142.893C342.376 145.117 336.067 146.536 329.393 146.536C306.389 146.536 286.604 132.008 278.504 111.751C271.142 110.589 263.703 109.992 256.25 109.964C236.755 109.966 217.458 113.864 199.491 121.429L227.313 169.643C236.633 166.488 246.401 164.858 256.241 164.816C277.301 164.835 297.708 172.123 314.015 185.45C330.322 198.777 341.528 217.324 345.74 237.959H401.241L401.256 237.964ZM401.219 274.536H345.826C341.612 295.182 330.395 313.739 314.073 327.067C297.752 340.395 277.328 347.676 256.255 347.679C246.418 347.65 236.65 346.034 227.327 342.893L199.577 390.964C217.508 398.555 236.773 402.49 256.245 402.539C263.725 402.471 271.189 401.829 278.571 400.619C286.69 380.432 306.439 365.968 329.387 365.968C336.082 365.968 342.433 367.371 348.388 369.61C377.561 345.888 396.478 311.844 401.215 274.543L401.219 274.536ZM365.964 91.6786C365.964 81.9792 362.111 72.6771 355.253 65.8187C348.394 58.9602 339.092 55.1071 329.393 55.1071C319.694 55.1071 310.391 58.9602 303.533 65.8187C296.674 72.6771 292.821 81.9792 292.821 91.6786C292.821 101.378 296.674 110.68 303.533 117.538C310.391 124.397 319.694 128.25 329.393 128.25C339.092 128.25 348.394 124.397 355.253 117.538C362.111 110.68 365.964 101.378 365.964 91.6786ZM365.964 420.821C365.964 411.122 362.111 401.82 355.253 394.962C348.394 388.103 339.092 384.25 329.393 384.25C319.694 384.25 310.391 388.103 303.533 394.962C296.674 401.82 292.821 411.122 292.821 420.821C292.821 430.521 296.674 439.823 303.533 446.681C310.391 453.54 319.694 457.393 329.393 457.393C339.092 457.393 348.394 453.54 355.253 446.681C362.111 439.823 365.964 430.521 365.964 420.821ZM195.688 187.935L167.93 139.858C141.51 159.923 122.695 188.372 114.572 220.538C122.965 230.186 128.251 242.596 128.251 256.252C128.251 269.891 122.981 282.287 114.608 291.931C122.69 324.125 141.481 352.614 167.895 372.717L195.689 324.607C186.004 316.044 178.245 305.524 172.925 293.742C167.604 281.96 164.843 269.183 164.823 256.255C164.848 243.334 167.612 230.564 172.932 218.789C178.253 207.013 186.009 196.499 195.689 187.94L195.688 187.935ZM109.964 256.25C109.964 246.551 106.111 237.249 99.2528 230.39C92.3943 223.532 83.0922 219.679 73.3929 219.679C63.6935 219.679 54.3914 223.532 47.5329 230.39C40.6745 237.249 36.8214 246.551 36.8214 256.25C36.8214 265.949 40.6745 275.251 47.5329 282.11C54.3914 288.968 63.6935 292.821 73.3929 292.821C83.0922 292.821 92.3943 288.968 99.2528 282.11C106.111 275.251 109.964 265.949 109.964 256.25V256.25Z" fill="white"/>
<path opacity="0.2" d="M256.232 0.25C188.34 0.254735 123.23 27.2282 75.2244 75.237C27.2189 123.246 0.25 188.358 0.25 256.25C0.290378 257.75 0.343952 259.251 0.410714 260.75C1.62705 193.693 29.11 129.792 76.9496 82.7872C124.789 35.7824 189.164 9.42861 256.232 9.39286H256.25C323.299 9.44714 387.651 35.8043 435.474 82.7995C483.298 129.795 510.775 193.676 512 260.714C512.09 259.227 512.168 257.739 512.232 256.25C512.232 188.358 485.263 123.246 437.258 75.237C389.252 27.2282 324.142 0.254735 256.25 0.25H256.232Z" fill="white"/>
</svg>
