<svg width="438" height="446" viewBox="0 0 438 446" fill="none" xmlns="http://www.w3.org/2000/svg">
<path d="M437.75 219C437.75 277.016 414.703 332.656 373.68 373.68C332.656 414.703 277.016 437.75 219 437.75C160.984 437.75 105.344 414.703 64.3204 373.68C23.2968 332.656 0.25 277.016 0.25 219C0.25 160.984 23.2968 105.344 64.3204 64.3204C105.344 23.2968 160.984 0.25 219 0.25C277.016 0.25 332.656 23.2968 373.68 64.3204C414.703 105.344 437.75 160.984 437.75 219Z" fill="#875A7B"/>
<path opacity="0.2" d="M342.906 211.187C338.835 179.3 322.635 150.207 297.672 129.953C292.594 131.844 287.203 133.062 281.5 133.062C261.844 133.062 244.937 120.656 238.016 103.339C231.725 102.347 225.368 101.836 219 101.812C202.342 101.814 185.852 105.145 170.5 111.609L194.273 152.808C202.237 150.112 210.584 148.719 218.992 148.683C236.988 148.699 254.426 154.927 268.36 166.315C282.294 177.702 291.87 193.551 295.469 211.183H342.894L342.906 211.187ZM342.875 242.437H295.542C291.941 260.08 282.356 275.936 268.41 287.325C254.463 298.714 237.011 304.935 219.005 304.937C210.599 304.913 202.252 303.532 194.286 300.848L170.573 341.925C185.895 348.411 202.357 351.774 218.995 351.815C225.387 351.757 231.765 351.209 238.073 350.175C245.011 332.925 261.886 320.565 281.495 320.565C287.216 320.565 292.643 321.764 297.731 323.678C322.659 303.408 338.824 274.317 342.872 242.444L342.875 242.437ZM312.75 86.1875C312.75 77.8995 309.458 69.9509 303.597 64.0904C297.737 58.2299 289.788 54.9375 281.5 54.9375C273.212 54.9375 265.263 58.2299 259.403 64.0904C253.542 69.9509 250.25 77.8995 250.25 86.1875C250.25 94.4755 253.542 102.424 259.403 108.285C265.263 114.145 273.212 117.437 281.5 117.437C289.788 117.437 297.737 114.145 303.597 108.285C309.458 102.424 312.75 94.4755 312.75 86.1875ZM312.75 367.437C312.75 359.149 309.458 351.201 303.597 345.34C297.737 339.48 289.788 336.187 281.5 336.187C273.212 336.187 265.263 339.48 259.403 345.34C253.542 351.201 250.25 359.149 250.25 367.437C250.25 375.726 253.542 383.674 259.403 389.535C265.263 395.395 273.212 398.687 281.5 398.687C289.788 398.687 297.737 395.395 303.597 389.535C309.458 383.674 312.75 375.726 312.75 367.437ZM167.25 168.437L143.531 127.359C120.956 144.504 104.879 168.813 97.9375 196.297C105.109 204.541 109.626 215.145 109.626 226.814C109.626 238.468 105.122 249.061 97.9681 257.302C104.874 284.811 120.931 309.155 143.501 326.333L167.251 285.223C158.975 277.906 152.345 268.917 147.799 258.849C143.253 248.781 140.893 237.864 140.876 226.817C140.897 215.776 143.259 204.864 147.806 194.802C152.352 184.74 158.979 175.756 167.251 168.442L167.25 168.437ZM94 226.812C94 218.524 90.7076 210.576 84.8471 204.715C78.9866 198.855 71.038 195.562 62.75 195.562C54.462 195.562 46.5134 198.855 40.6529 204.715C34.7924 210.576 31.5 218.524 31.5 226.812C31.5 235.101 34.7924 243.049 40.6529 248.91C46.5134 254.77 54.462 258.062 62.75 258.062C71.038 258.062 78.9866 254.77 84.8471 248.91C90.7076 243.049 94 235.101 94 226.812Z" fill="black"/>
<path d="M342.906 203.375C338.835 171.487 322.635 142.393 297.672 122.138C292.594 124.038 287.203 125.25 281.5 125.25C261.844 125.25 244.937 112.836 238.016 95.5266C231.725 94.5341 225.368 94.0237 219 94C202.342 94.0014 185.852 97.3322 170.5 103.797L194.273 144.995C202.237 142.299 210.584 140.906 218.992 140.87C236.988 140.886 254.426 147.115 268.36 158.502C282.294 169.89 291.87 185.738 295.469 203.37H342.894L342.906 203.375ZM342.875 234.625H295.542C291.941 252.267 282.356 268.124 268.41 279.513C254.463 290.901 237.011 297.123 219.005 297.125C210.599 297.101 202.252 295.72 194.286 293.036L170.573 334.112C185.895 340.599 202.357 343.961 218.995 344.003C225.387 343.945 231.765 343.396 238.073 342.362C245.011 325.112 261.886 312.753 281.495 312.753C287.216 312.753 292.643 313.952 297.731 315.866C322.659 295.595 338.824 266.504 342.872 234.631L342.875 234.625ZM312.75 78.375C312.75 70.087 309.458 62.1384 303.597 56.2779C297.737 50.4174 289.788 47.125 281.5 47.125C273.212 47.125 265.263 50.4174 259.403 56.2779C253.542 62.1384 250.25 70.087 250.25 78.375C250.25 86.663 253.542 94.6116 259.403 100.472C265.263 106.333 273.212 109.625 281.5 109.625C289.788 109.625 297.737 106.333 303.597 100.472C309.458 94.6116 312.75 86.663 312.75 78.375ZM312.75 359.625C312.75 351.337 309.458 343.388 303.597 337.528C297.737 331.667 289.788 328.375 281.5 328.375C273.212 328.375 265.263 331.667 259.403 337.528C253.542 343.388 250.25 351.337 250.25 359.625C250.25 367.913 253.542 375.862 259.403 381.722C265.263 387.583 273.212 390.875 281.5 390.875C289.788 390.875 297.737 387.583 303.597 381.722C309.458 375.862 312.75 367.913 312.75 359.625ZM167.25 160.625L143.531 119.544C120.956 136.689 104.878 160.999 97.9375 188.484C105.109 196.729 109.626 207.333 109.626 219.002C109.626 230.656 105.122 241.248 97.9681 249.489C104.874 276.999 120.931 301.342 143.501 318.52L167.251 277.411C158.975 270.094 152.345 261.104 147.799 251.037C143.253 240.969 140.893 230.051 140.876 219.005C140.897 207.963 143.259 197.052 147.806 186.99C152.352 176.928 158.979 167.944 167.251 160.63L167.25 160.625ZM94 219C94 210.712 90.7076 202.763 84.8471 196.903C78.9866 191.042 71.038 187.75 62.75 187.75C54.462 187.75 46.5134 191.042 40.6529 196.903C34.7924 202.763 31.5 210.712 31.5 219C31.5 227.288 34.7924 235.237 40.6529 241.097C46.5134 246.958 54.462 250.25 62.75 250.25C71.038 250.25 78.9866 246.958 84.8471 241.097C90.7076 235.237 94 227.288 94 219V219Z" fill="white"/>
<path opacity="0.2" d="M218.985 0.25C160.971 0.254046 105.335 23.3026 64.315 64.3258C23.2947 105.349 0.25 160.987 0.25 219C0.284503 220.282 0.330281 221.564 0.387329 222.845C1.42668 165.546 24.9106 110.943 65.7892 70.7774C106.668 30.6122 161.676 8.09305 218.985 8.0625H219C276.293 8.10888 331.281 30.6309 372.146 70.7879C413.01 110.945 436.489 165.531 437.536 222.815C437.614 221.544 437.68 220.272 437.735 219C437.735 160.987 414.69 105.349 373.67 64.3258C332.649 23.3026 277.013 0.254046 219 0.25H218.985Z" fill="white"/>
</svg>
